<?xml version="1.0" ?>
<!-- Uploaded to: SVG Repo, www.svgrepo.com, Generator: SVG Repo Mixer Tools -->
<svg width="800px" height="800px" viewBox="0 0 500 500" id="Layer_1" version="1.1" xml:space="preserve" xmlns="http://www.w3.org/2000/svg" xmlns:xlink="http://www.w3.org/1999/xlink">
<style type="text/css">
	.st0{fill:#F26E91;}
	.st1{fill:#00A779;}
	.st2{fill:#C4FFC9;}
	.st3{fill:#AB630A;}
	.st4{fill:#C98C40;}
	.st5{fill:#15AA78;}
	.st6{fill:#FF9000;}
	.st7{fill:#FCEECF;}
	.st8{fill:#FFE940;}
	.st9{fill:#F0E3CE;}
	.st10{fill:#FFB5C5;}
	.st11{fill:#91EDFF;}
	.st12{fill:#7191F0;}
	.st13{fill:#363636;}
	.st14{fill:#565656;}
	.st15{fill:#F3DF4D;}
	.st16{fill:#CD4A77;}
	.st17{fill:#577AE6;}
	.st18{fill:#F4D100;}
</style>
<g id="sunblock">
<path class="st9" d="M187.67,389.75h124.67v52.28c0,13.86-11.24,25.1-25.1,25.1h-74.47c-13.86,0-25.1-11.24-25.1-25.1V389.75z"/>
<g>
<path class="st6" d="M312.4,389.75H187.74c-3.03,0-5.59-2.25-5.98-5.26L138.52,46.91c-0.95-7.45,4.85-14.05,12.37-14.05h198.23    c7.51,0,13.32,6.59,12.37,14.05l-43.11,337.58C317.99,387.5,315.43,389.75,312.4,389.75z"/>
<g>
<g>
<path class="st8" d="M249.96,162.62c-18.48,0-33.51-15.03-33.51-33.51s15.03-33.51,33.51-33.51s33.51,15.03,33.51,33.51      S268.44,162.62,249.96,162.62z M249.96,98.59c-16.82,0-30.51,13.69-30.51,30.51s13.69,30.51,30.51,30.51      s30.51-13.69,30.51-30.51S266.78,98.59,249.96,98.59z"/>
</g>
<g>
<g>
<path class="st8" d="M254.83,86.38h-9.74c-1.58,0-3-0.82-3.79-2.19c-0.79-1.37-0.79-3,0-4.37l4.87-8.43       c0.79-1.37,2.21-2.19,3.79-2.19s3,0.82,3.79,2.19l4.87,8.43c0.79,1.37,0.79,3,0,4.37C257.83,85.56,256.41,86.38,254.83,86.38z        M249.96,72.2c-0.24,0-0.83,0.07-1.19,0.69l-4.87,8.43c-0.36,0.62-0.12,1.17,0,1.37s0.47,0.69,1.19,0.69h9.74       c0.72,0,1.07-0.48,1.19-0.69s0.36-0.75,0-1.37l-4.87-8.43C250.79,72.27,250.2,72.2,249.96,72.2z"/>
</g>
<g>
<path class="st8" d="M284.13,101.02c-1.06,0-2.09-0.39-2.91-1.13l-7.24-6.51c-1.18-1.06-1.68-2.61-1.35-4.16       c0.33-1.55,1.42-2.76,2.92-3.25l9.26-3.01c1.51-0.49,3.1-0.15,4.28,0.91c1.18,1.06,1.68,2.61,1.35,4.16l-2.02,9.52       c-0.33,1.55-1.42,2.76-2.92,3.25C285.05,100.95,284.59,101.02,284.13,101.02z M286.18,85.74c-0.13,0-0.28,0.02-0.44,0.07       l-9.26,3.01c-0.68,0.22-0.87,0.79-0.92,1.02s-0.11,0.83,0.43,1.31l7.24,6.51c0.53,0.48,1.12,0.36,1.34,0.29       c0.23-0.07,0.77-0.32,0.92-1.02l2.02-9.52c0.15-0.7-0.25-1.15-0.42-1.31C286.95,85.97,286.63,85.74,286.18,85.74z"/>
</g>
<g>
<path class="st8" d="M297.23,130.77c-0.55,0-1.11-0.11-1.65-0.32c-1.47-0.59-2.47-1.88-2.69-3.45l-1.35-9.64       c-0.22-1.57,0.39-3.08,1.64-4.06c1.25-0.97,2.87-1.2,4.33-0.61l9.03,3.65c1.46,0.59,2.47,1.88,2.69,3.45       c0.22,1.57-0.39,3.08-1.64,4.06h0l-7.67,5.99C299.12,130.46,298.18,130.77,297.23,130.77z M295.85,115.37       c-0.4,0-0.71,0.19-0.84,0.3c-0.19,0.15-0.61,0.56-0.51,1.27l1.35,9.64c0.1,0.71,0.62,0.99,0.85,1.08       c0.22,0.09,0.8,0.25,1.36-0.19l7.67-5.99c0.56-0.44,0.55-1.04,0.51-1.27c-0.03-0.24-0.18-0.81-0.84-1.08l-9.03-3.65       C296.19,115.4,296.01,115.37,295.85,115.37z"/>
</g>
<g>
<path class="st8" d="M296.87,163.14c-0.09,0-0.17,0-0.26-0.01l-9.72-0.56c-1.58-0.09-2.95-0.99-3.66-2.4       c-0.71-1.41-0.62-3.04,0.25-4.37l5.35-8.14c0.87-1.32,2.33-2.05,3.91-1.97c1.58,0.09,2.95,0.99,3.66,2.4l4.38,8.7       c0.71,1.41,0.62,3.04-0.25,4.37C299.69,162.42,298.34,163.14,296.87,163.14z M292.48,148.7c-0.27,0-0.79,0.08-1.15,0.62       l-5.35,8.14c-0.39,0.6-0.19,1.16-0.08,1.37c0.11,0.21,0.43,0.71,1.15,0.75l9.72,0.56c0.73,0.04,1.1-0.42,1.23-0.62       c0.13-0.2,0.4-0.73,0.08-1.37l-4.38-8.7c-0.32-0.64-0.91-0.74-1.15-0.75C292.54,148.7,292.51,148.7,292.48,148.7z"/>
</g>
<g>
<path class="st8" d="M270.3,184.86c-0.98,0-1.93-0.33-2.73-0.97l-7.58-6.11c-1.23-0.99-1.82-2.52-1.58-4.08       c0.24-1.56,1.27-2.84,2.74-3.41l9.08-3.51c1.47-0.57,3.09-0.32,4.32,0.67c1.23,0.99,1.82,2.52,1.58,4.08l-1.5,9.62       c-0.24,1.56-1.27,2.84-2.74,3.41C271.37,184.77,270.83,184.86,270.3,184.86z M271.81,169.48c-0.15,0-0.32,0.03-0.5,0.1       l-9.08,3.51c-0.67,0.26-0.82,0.83-0.86,1.07c-0.04,0.24-0.06,0.83,0.5,1.28l7.58,6.11c0.56,0.45,1.14,0.3,1.36,0.21       c0.22-0.09,0.75-0.36,0.86-1.07l1.5-9.62c0.11-0.71-0.31-1.13-0.5-1.28C272.53,169.68,272.23,169.48,271.81,169.48z"/>
</g>
<g>
<path class="st8" d="M215.3,101.31c-0.46,0-0.92-0.07-1.37-0.22c-1.5-0.49-2.6-1.71-2.93-3.25l-2.02-9.53       c-0.33-1.55,0.18-3.1,1.35-4.16s2.77-1.4,4.28-0.91l9.26,3.01c1.5,0.49,2.6,1.71,2.92,3.25c0.33,1.55-0.18,3.1-1.35,4.16       l-7.24,6.51C217.38,100.93,216.36,101.31,215.3,101.31z M213.25,86.03c-0.45,0-0.77,0.23-0.91,0.36       c-0.18,0.16-0.57,0.61-0.42,1.31l2.02,9.53c0.15,0.7,0.69,0.95,0.92,1.02c0.23,0.07,0.81,0.19,1.34-0.28l7.24-6.51       c0.53-0.48,0.47-1.07,0.42-1.31s-0.24-0.8-0.92-1.02l-9.26-3.01C213.53,86.05,213.38,86.03,213.25,86.03z"/>
</g>
<g>
<path class="st8" d="M202.69,131.1c-0.98,0-1.93-0.33-2.73-0.97l-7.58-6.11c-1.23-0.99-1.82-2.52-1.58-4.08       c0.24-1.56,1.27-2.84,2.74-3.41l9.08-3.51c1.47-0.57,3.09-0.32,4.32,0.67c1.23,0.99,1.82,2.52,1.58,4.08l-1.5,9.62       c-0.24,1.56-1.27,2.84-2.74,3.41C203.76,131,203.22,131.1,202.69,131.1z M204.21,115.72c-0.15,0-0.32,0.03-0.5,0.1l-9.08,3.51       c-0.67,0.26-0.82,0.83-0.86,1.07c-0.04,0.24-0.06,0.83,0.5,1.28l7.58,6.11c0.56,0.45,1.14,0.3,1.36,0.21       c0.22-0.09,0.75-0.36,0.86-1.07l1.5-9.62c0.11-0.71-0.31-1.13-0.5-1.28C204.92,115.92,204.62,115.72,204.21,115.72z"/>
</g>
<g>
<path class="st8" d="M202.68,162.34c-1.5,0-2.87-0.75-3.68-2.02c-0.85-1.33-0.92-2.97-0.19-4.37l4.49-8.64       c0.73-1.4,2.11-2.28,3.69-2.35c1.58-0.07,3.03,0.69,3.88,2.02l5.23,8.21c0.85,1.33,0.92,2.97,0.19,4.37       c-0.73,1.4-2.11,2.28-3.69,2.35l-9.73,0.43C202.81,162.34,202.74,162.34,202.68,162.34z M207.18,147.96c-0.02,0-0.04,0-0.06,0       c-0.24,0.01-0.83,0.1-1.16,0.74l-4.49,8.64c-0.33,0.64-0.07,1.17,0.06,1.37c0.13,0.2,0.47,0.66,1.22,0.63l9.73-0.43       c0.71-0.03,1.05-0.53,1.16-0.74c0.11-0.21,0.32-0.77-0.06-1.37l-5.23-8.21C207.98,148.04,207.45,147.96,207.18,147.96z"/>
</g>
<g>
<path class="st8" d="M233.46,186.21c-0.46,0-0.92-0.07-1.37-0.22c-1.5-0.49-2.6-1.71-2.92-3.25l-2.02-9.53       c-0.33-1.55,0.18-3.1,1.36-4.16c1.17-1.06,2.77-1.4,4.28-0.91l9.26,3.01c1.5,0.49,2.6,1.71,2.92,3.25       c0.33,1.55-0.18,3.1-1.35,4.16l-7.24,6.51C235.55,185.83,234.52,186.21,233.46,186.21z M231.42,170.93       c-0.45,0-0.77,0.23-0.91,0.36c-0.18,0.16-0.57,0.61-0.43,1.31l2.02,9.53c0.15,0.7,0.69,0.95,0.92,1.02       c0.23,0.07,0.81,0.19,1.34-0.28l7.24-6.51c0.53-0.48,0.47-1.07,0.42-1.31s-0.24-0.8-0.92-1.02l-9.26-3.01       C231.7,170.95,231.55,170.93,231.42,170.93z"/>
</g>
</g>
</g>
</g>
</g>
</svg>